<mxfile host="app.diagrams.net" modified="2023-09-23T12:14:14.528Z" agent="Mozilla/5.0 (X11; Linux x86_64; rv:109.0) Gecko/20100101 Firefox/117.0" etag="fpDU71esN8lZYKAPvxf-" version="21.8.0" type="device">
  <diagram name="Страница — 1" id="Jsij9m1Ud0JxY7xXbpQ1">
    <mxGraphModel dx="1434" dy="722" grid="1" gridSize="10" guides="1" tooltips="1" connect="1" arrows="1" fold="1" page="1" pageScale="1" pageWidth="827" pageHeight="1169" math="0" shadow="0">
      <root>
        <mxCell id="0" />
        <mxCell id="1" parent="0" />
        <mxCell id="hU_I9BpHjMhNWn7Mn5T3-19" style="edgeStyle=orthogonalEdgeStyle;rounded=0;orthogonalLoop=1;jettySize=auto;html=1;entryX=0;entryY=0.5;entryDx=0;entryDy=0;" edge="1" parent="1" source="hU_I9BpHjMhNWn7Mn5T3-1" target="hU_I9BpHjMhNWn7Mn5T3-5">
          <mxGeometry relative="1" as="geometry">
            <Array as="points">
              <mxPoint x="190" y="360" />
              <mxPoint x="190" y="650" />
            </Array>
          </mxGeometry>
        </mxCell>
        <mxCell id="hU_I9BpHjMhNWn7Mn5T3-20" value="WRITE" style="edgeLabel;html=1;align=center;verticalAlign=middle;resizable=0;points=[];" vertex="1" connectable="0" parent="hU_I9BpHjMhNWn7Mn5T3-19">
          <mxGeometry x="-0.0205" y="2" relative="1" as="geometry">
            <mxPoint as="offset" />
          </mxGeometry>
        </mxCell>
        <mxCell id="hU_I9BpHjMhNWn7Mn5T3-30" value="" style="edgeStyle=orthogonalEdgeStyle;rounded=0;orthogonalLoop=1;jettySize=auto;html=1;" edge="1" parent="1" source="hU_I9BpHjMhNWn7Mn5T3-1" target="hU_I9BpHjMhNWn7Mn5T3-28">
          <mxGeometry relative="1" as="geometry" />
        </mxCell>
        <mxCell id="hU_I9BpHjMhNWn7Mn5T3-31" value="UPDATE" style="edgeLabel;html=1;align=center;verticalAlign=middle;resizable=0;points=[];" vertex="1" connectable="0" parent="hU_I9BpHjMhNWn7Mn5T3-30">
          <mxGeometry y="-1" relative="1" as="geometry">
            <mxPoint as="offset" />
          </mxGeometry>
        </mxCell>
        <mxCell id="hU_I9BpHjMhNWn7Mn5T3-39" style="edgeStyle=orthogonalEdgeStyle;rounded=0;orthogonalLoop=1;jettySize=auto;html=1;exitX=1;exitY=0.75;exitDx=0;exitDy=0;entryX=0;entryY=0.75;entryDx=0;entryDy=0;" edge="1" parent="1" source="hU_I9BpHjMhNWn7Mn5T3-1" target="hU_I9BpHjMhNWn7Mn5T3-35">
          <mxGeometry relative="1" as="geometry">
            <Array as="points">
              <mxPoint x="340" y="373" />
              <mxPoint x="340" y="370" />
            </Array>
          </mxGeometry>
        </mxCell>
        <mxCell id="hU_I9BpHjMhNWn7Mn5T3-40" value="WRITE" style="edgeLabel;html=1;align=center;verticalAlign=middle;resizable=0;points=[];" vertex="1" connectable="0" parent="hU_I9BpHjMhNWn7Mn5T3-39">
          <mxGeometry x="0.1014" y="-2" relative="1" as="geometry">
            <mxPoint as="offset" />
          </mxGeometry>
        </mxCell>
        <mxCell id="hU_I9BpHjMhNWn7Mn5T3-1" value="&lt;div&gt;Executor&lt;/div&gt;" style="rounded=1;whiteSpace=wrap;html=1;" vertex="1" parent="1">
          <mxGeometry x="240" y="320" width="120" height="70" as="geometry" />
        </mxCell>
        <mxCell id="hU_I9BpHjMhNWn7Mn5T3-5" value="Memory" style="rounded=1;whiteSpace=wrap;html=1;" vertex="1" parent="1">
          <mxGeometry x="240" y="620" width="120" height="60" as="geometry" />
        </mxCell>
        <mxCell id="hU_I9BpHjMhNWn7Mn5T3-13" value="" style="edgeStyle=orthogonalEdgeStyle;rounded=0;orthogonalLoop=1;jettySize=auto;html=1;exitX=0.5;exitY=0;exitDx=0;exitDy=0;entryX=0.5;entryY=1;entryDx=0;entryDy=0;" edge="1" parent="1" source="hU_I9BpHjMhNWn7Mn5T3-5" target="hU_I9BpHjMhNWn7Mn5T3-21">
          <mxGeometry relative="1" as="geometry">
            <mxPoint x="300" y="430" as="sourcePoint" />
            <mxPoint x="300" y="550" as="targetPoint" />
            <Array as="points" />
          </mxGeometry>
        </mxCell>
        <mxCell id="hU_I9BpHjMhNWn7Mn5T3-14" value="&lt;div&gt;READ &amp;amp; CONVERT&lt;/div&gt;" style="edgeLabel;html=1;align=center;verticalAlign=middle;resizable=0;points=[];" vertex="1" connectable="0" parent="hU_I9BpHjMhNWn7Mn5T3-13">
          <mxGeometry x="-0.1556" y="-5" relative="1" as="geometry">
            <mxPoint x="-5" as="offset" />
          </mxGeometry>
        </mxCell>
        <mxCell id="hU_I9BpHjMhNWn7Mn5T3-16" style="edgeStyle=orthogonalEdgeStyle;rounded=0;orthogonalLoop=1;jettySize=auto;html=1;entryX=1;entryY=0.5;entryDx=0;entryDy=0;" edge="1" parent="1" source="hU_I9BpHjMhNWn7Mn5T3-15">
          <mxGeometry relative="1" as="geometry">
            <mxPoint x="360" y="650" as="targetPoint" />
          </mxGeometry>
        </mxCell>
        <mxCell id="hU_I9BpHjMhNWn7Mn5T3-17" value="&lt;div&gt;LOAD&lt;/div&gt;" style="edgeLabel;html=1;align=center;verticalAlign=middle;resizable=0;points=[];" vertex="1" connectable="0" parent="hU_I9BpHjMhNWn7Mn5T3-16">
          <mxGeometry x="-0.0615" y="-4" relative="1" as="geometry">
            <mxPoint x="-9" y="4" as="offset" />
          </mxGeometry>
        </mxCell>
        <mxCell id="hU_I9BpHjMhNWn7Mn5T3-15" value="Program.bin" style="shape=note;whiteSpace=wrap;html=1;backgroundOutline=1;darkOpacity=0.05;" vertex="1" parent="1">
          <mxGeometry x="490" y="600" width="80" height="100" as="geometry" />
        </mxCell>
        <mxCell id="hU_I9BpHjMhNWn7Mn5T3-26" value="" style="edgeStyle=orthogonalEdgeStyle;rounded=0;orthogonalLoop=1;jettySize=auto;html=1;" edge="1" parent="1" source="hU_I9BpHjMhNWn7Mn5T3-21" target="hU_I9BpHjMhNWn7Mn5T3-1">
          <mxGeometry relative="1" as="geometry" />
        </mxCell>
        <mxCell id="hU_I9BpHjMhNWn7Mn5T3-27" value="&lt;div&gt;GET &amp;amp; EXECUTE&lt;/div&gt;" style="edgeLabel;html=1;align=center;verticalAlign=middle;resizable=0;points=[];" vertex="1" connectable="0" parent="hU_I9BpHjMhNWn7Mn5T3-26">
          <mxGeometry x="0.125" y="-3" relative="1" as="geometry">
            <mxPoint as="offset" />
          </mxGeometry>
        </mxCell>
        <mxCell id="hU_I9BpHjMhNWn7Mn5T3-21" value="&lt;div&gt;Command &lt;/div&gt;" style="rounded=1;whiteSpace=wrap;html=1;" vertex="1" parent="1">
          <mxGeometry x="240" y="470" width="120" height="60" as="geometry" />
        </mxCell>
        <mxCell id="hU_I9BpHjMhNWn7Mn5T3-23" value="" style="edgeStyle=orthogonalEdgeStyle;rounded=0;orthogonalLoop=1;jettySize=auto;html=1;" edge="1" parent="1" source="hU_I9BpHjMhNWn7Mn5T3-22" target="hU_I9BpHjMhNWn7Mn5T3-21">
          <mxGeometry relative="1" as="geometry" />
        </mxCell>
        <mxCell id="hU_I9BpHjMhNWn7Mn5T3-22" value="Argumnets" style="rounded=1;whiteSpace=wrap;html=1;" vertex="1" parent="1">
          <mxGeometry x="390" y="470" width="120" height="60" as="geometry" />
        </mxCell>
        <mxCell id="hU_I9BpHjMhNWn7Mn5T3-25" value="" style="endArrow=classic;html=1;rounded=0;entryX=0.45;entryY=1.05;entryDx=0;entryDy=0;entryPerimeter=0;" edge="1" parent="1" target="hU_I9BpHjMhNWn7Mn5T3-22">
          <mxGeometry width="50" height="50" relative="1" as="geometry">
            <mxPoint x="300" y="570" as="sourcePoint" />
            <mxPoint x="350" y="530" as="targetPoint" />
          </mxGeometry>
        </mxCell>
        <mxCell id="hU_I9BpHjMhNWn7Mn5T3-32" style="edgeStyle=orthogonalEdgeStyle;rounded=0;orthogonalLoop=1;jettySize=auto;html=1;entryX=0;entryY=0.25;entryDx=0;entryDy=0;" edge="1" parent="1" source="hU_I9BpHjMhNWn7Mn5T3-28" target="hU_I9BpHjMhNWn7Mn5T3-1">
          <mxGeometry relative="1" as="geometry">
            <mxPoint x="190" y="340" as="targetPoint" />
            <Array as="points">
              <mxPoint x="190" y="250" />
              <mxPoint x="190" y="338" />
            </Array>
          </mxGeometry>
        </mxCell>
        <mxCell id="hU_I9BpHjMhNWn7Mn5T3-33" value="GET STATE" style="edgeLabel;html=1;align=center;verticalAlign=middle;resizable=0;points=[];" vertex="1" connectable="0" parent="hU_I9BpHjMhNWn7Mn5T3-32">
          <mxGeometry x="0.0453" y="-1" relative="1" as="geometry">
            <mxPoint as="offset" />
          </mxGeometry>
        </mxCell>
        <mxCell id="hU_I9BpHjMhNWn7Mn5T3-28" value="State" style="rounded=1;whiteSpace=wrap;html=1;" vertex="1" parent="1">
          <mxGeometry x="240" y="220" width="120" height="60" as="geometry" />
        </mxCell>
        <mxCell id="hU_I9BpHjMhNWn7Mn5T3-34" value="регистры и флаги тут" style="text;html=1;strokeColor=none;fillColor=none;align=center;verticalAlign=middle;whiteSpace=wrap;rounded=0;" vertex="1" parent="1">
          <mxGeometry x="370" y="223" width="60" height="50" as="geometry" />
        </mxCell>
        <mxCell id="hU_I9BpHjMhNWn7Mn5T3-36" style="edgeStyle=orthogonalEdgeStyle;rounded=0;orthogonalLoop=1;jettySize=auto;html=1;entryX=1;entryY=0.5;entryDx=0;entryDy=0;" edge="1" parent="1" source="hU_I9BpHjMhNWn7Mn5T3-35" target="hU_I9BpHjMhNWn7Mn5T3-1">
          <mxGeometry relative="1" as="geometry" />
        </mxCell>
        <mxCell id="hU_I9BpHjMhNWn7Mn5T3-37" value="&lt;div&gt;READ&lt;/div&gt;" style="edgeLabel;html=1;align=center;verticalAlign=middle;resizable=0;points=[];" vertex="1" connectable="0" parent="hU_I9BpHjMhNWn7Mn5T3-36">
          <mxGeometry x="0.0609" y="-3" relative="1" as="geometry">
            <mxPoint as="offset" />
          </mxGeometry>
        </mxCell>
        <mxCell id="hU_I9BpHjMhNWn7Mn5T3-41" style="edgeStyle=orthogonalEdgeStyle;rounded=0;orthogonalLoop=1;jettySize=auto;html=1;exitX=0;exitY=0.25;exitDx=0;exitDy=0;entryX=1;entryY=0.25;entryDx=0;entryDy=0;" edge="1" parent="1" source="hU_I9BpHjMhNWn7Mn5T3-35" target="hU_I9BpHjMhNWn7Mn5T3-1">
          <mxGeometry relative="1" as="geometry">
            <mxPoint x="370" y="340" as="targetPoint" />
            <Array as="points">
              <mxPoint x="550" y="340" />
              <mxPoint x="550" y="338" />
            </Array>
          </mxGeometry>
        </mxCell>
        <mxCell id="hU_I9BpHjMhNWn7Mn5T3-42" value="&lt;div&gt;INTERRUPT&lt;/div&gt;" style="edgeLabel;html=1;align=center;verticalAlign=middle;resizable=0;points=[];" vertex="1" connectable="0" parent="hU_I9BpHjMhNWn7Mn5T3-41">
          <mxGeometry x="0.4474" y="3" relative="1" as="geometry">
            <mxPoint as="offset" />
          </mxGeometry>
        </mxCell>
        <mxCell id="hU_I9BpHjMhNWn7Mn5T3-35" value="Внеш. У." style="rounded=1;whiteSpace=wrap;html=1;" vertex="1" parent="1">
          <mxGeometry x="500" y="325" width="120" height="60" as="geometry" />
        </mxCell>
      </root>
    </mxGraphModel>
  </diagram>
</mxfile>
